<svg width="80" height="89" viewBox="0 0 80 89" fill="none" xmlns="http://www.w3.org/2000/svg">
<path id="Vector" d="M40.0257 81.0002C41.2277 81.0002 42.4301 80.7362 43.3441 80.2076L69.4483 65.0793C71.2786 64.0181 72.7305 61.4475 72.7305 59.3583V28.9986C72.7305 26.9116 71.2786 24.3351 69.4483 23.2762L43.3641 8.15064C41.537 7.09346 38.5451 7.09346 36.7184 8.15064L10.5923 23.2762C8.76537 24.3351 7.26946 26.9116 7.26946 28.9986V59.3583C7.26946 61.4475 8.76116 64.0181 10.5872 65.0793L36.7085 80.2076C37.6218 80.7362 38.8236 81.0002 40.0257 81.0002ZM40.0257 88.3582C38.2558 88.3582 35.6179 88.0524 33.0997 86.5951L6.97684 71.4659C2.86515 69.0758 0 64.0994 0 59.3583V28.9986C0 24.2521 2.87025 19.2734 6.97973 16.8909L33.1092 1.7636C35.6281 0.305834 38.2689 0 40.041 0C41.8129 0 44.4538 0.305834 46.9722 1.76315L73.062 16.8918C77.1446 19.2541 80 24.2341 80 28.9986V59.3583C80 64.1169 77.1468 69.0952 73.062 71.4637L46.9562 86.5928C44.4323 88.0524 41.7947 88.3582 40.0257 88.3582Z" fill="#23D2E2"/>
</svg>
