<svg xmlns="http://www.w3.org/2000/svg" width="19" height="21" viewBox="0 0 19 21" fill="none">
  <path opacity="0.4" d="M4.625 20.9489C3.5551 20.9489 2.52901 20.5239 1.77247 19.7673C1.01593 19.0108 0.590912 17.9847 0.590912 16.9148V4.8125C0.590912 3.7426 1.01593 2.71651 1.77247 1.95997C2.52901 1.20343 3.5551 0.778412 4.625 0.778412H14.7102C15.7801 0.778412 16.8062 1.20343 17.5628 1.95997C18.3193 2.71651 18.7443 3.7426 18.7443 4.8125V16.9148C18.7443 17.9847 18.3193 19.0108 17.5628 19.7673C16.8062 20.5239 15.7801 20.9489 14.7102 20.9489H4.625ZM2.60796 16.9148C2.60796 17.4497 2.8205 17.9628 3.19877 18.341C3.57703 18.7193 4.09005 18.9318 4.625 18.9318H14.7102C15.2452 18.9318 15.7582 18.7193 16.1365 18.341C16.5147 17.9628 16.7273 17.4497 16.7273 16.9148V9.85512H2.60796V16.9148ZM2.60796 4.8125V7.83807H16.7273V4.8125C16.7273 4.27755 16.5147 3.7645 16.1365 3.38623C15.7582 3.00797 15.2452 2.79546 14.7102 2.79546H4.625C4.09005 2.79546 3.57703 3.00797 3.19877 3.38623C2.8205 3.7645 2.60796 4.27755 2.60796 4.8125ZM12.6932 16.9148V14.8977H14.7102V16.9148H12.6932ZM4.625 16.9148V14.8977H10.6761V16.9148H4.625ZM4.625 13.8892V11.8722H14.7102V13.8892H4.625Z" fill="#AFB0C0"/>
</svg>