<svg width="36" height="40" viewBox="0 0 36 40" fill="none" xmlns="http://www.w3.org/2000/svg">
<path d="M33.75 39.9989C33.2887 39.9989 32.832 39.8729 32.4428 39.6229L18 30.5L3.55725 39.6249C2.871 40.0609 1.96875 40.1229 1.2195 39.7789C0.47025 39.4329 0 38.7489 0 37.999V5.99984C0 2.69193 3.0285 0 6.75 0H29.25C32.9715 0 36 2.69193 36 5.99984V37.999C36 38.7489 35.5298 39.4329 34.7805 39.7789C34.4543 39.9249 34.101 39.9989 33.75 39.9989ZM18 26C18.4568 26 19.1085 26.254 19.5 26.5L31.5 34.1131V5.99984C31.5 4.89787 30.492 3.99989 29.25 3.99989H6.75C5.508 3.99989 4.5 4.89587 4.5 5.99984V34.1131L16.5 26.5C16.8915 26.254 17.541 26 18 26Z" fill="#CFD0D9"/>
</svg>
