<svg xmlns="http://www.w3.org/2000/svg" width="21" height="21" viewBox="0 0 21 21" fill="none">
  <path d="M4.7841 20.9262C3.71419 20.9262 2.6881 20.5012 1.93156 19.7446C1.17502 18.9881 0.750008 17.962 0.750008 16.8921V6.80687C0.750008 5.73697 1.17502 4.71088 1.93156 3.95434C2.6881 3.1978 3.71419 2.77278 4.7841 2.77278C4.7841 0.899956 6.0619 0.755737 7.79252 0.755737C8.11929 0.755737 8.46319 0.760785 8.81819 0.760785H12.8523C13.2073 0.760785 13.5512 0.755737 13.879 0.755737C15.6086 0.755737 16.8874 0.904999 16.8874 2.77278C17.9573 2.77278 18.9834 3.1978 19.7399 3.95434C20.4965 4.71088 20.9215 5.73697 20.9215 6.80687V16.8921C20.9215 17.962 20.4965 18.9881 19.7399 19.7446C18.9834 20.5012 17.9573 20.9262 16.8874 20.9262H4.7841ZM2.76705 6.80687V16.8921C2.76705 17.4271 2.97956 17.9401 3.35783 18.3183C3.7361 18.6966 4.24914 18.9091 4.7841 18.9091H16.8864C17.4213 18.9091 17.9344 18.6966 18.3126 18.3183C18.6909 17.9401 18.9034 17.4271 18.9034 16.8921V6.80687C18.9034 6.27192 18.6909 5.75891 18.3126 5.38064C17.9344 5.00237 17.4213 4.78983 16.8864 4.78983H14.8693V2.8131C14.5402 2.78077 14.2096 2.76732 13.879 2.77278H13.4019H12.8533H8.81921H8.27056H7.79354C7.46225 2.76733 7.1309 2.78078 6.80114 2.8131V4.79488H4.7841C4.25002 4.79487 3.73774 5.00666 3.35962 5.38384C2.98149 5.76102 2.76839 6.27279 2.76705 6.80687ZM6.80114 12.858C6.80114 12.0601 7.03775 11.2802 7.48102 10.6168C7.92429 9.95338 8.55432 9.43635 9.29146 9.13102C10.0286 8.82569 10.8397 8.74576 11.6223 8.90142C12.4048 9.05707 13.1236 9.4413 13.6878 10.0055C14.2519 10.5697 14.6361 11.2885 14.7918 12.071C14.9475 12.8536 14.8676 13.6647 14.5623 14.4018C14.2569 15.139 13.7399 15.769 13.0765 16.2122C12.4131 16.6555 11.6331 16.8921 10.8352 16.8921C9.76533 16.8921 8.73924 16.4671 7.9827 15.7105C7.22616 14.954 6.80114 13.9279 6.80114 12.858ZM8.81819 12.858C8.81819 13.2569 8.93649 13.6469 9.15813 13.9786C9.37976 14.3103 9.69476 14.5689 10.0633 14.7215C10.4319 14.8742 10.8375 14.9141 11.2287 14.8363C11.62 14.7584 11.9794 14.5663 12.2615 14.2842C12.5436 14.0022 12.7357 13.6428 12.8135 13.2515C12.8914 12.8603 12.8514 12.4547 12.6987 12.0861C12.5461 11.7175 12.2876 11.4025 11.9559 11.1809C11.6241 10.9592 11.2342 10.841 10.8352 10.841C10.3003 10.841 9.78724 11.0535 9.40897 11.4318C9.0307 11.81 8.81819 12.3231 8.81819 12.858ZM14.8693 7.8154C14.8693 7.61593 14.9285 7.42097 15.0393 7.25512C15.1501 7.08927 15.3076 6.95997 15.4919 6.88363C15.6762 6.8073 15.879 6.78735 16.0746 6.82626C16.2702 6.86518 16.4499 6.96123 16.591 7.10228C16.732 7.24332 16.8281 7.42303 16.867 7.61867C16.9059 7.8143 16.8859 8.01707 16.8096 8.20135C16.7333 8.38563 16.604 8.54315 16.4382 8.65396C16.2723 8.76478 16.0773 8.82392 15.8778 8.82392C15.6104 8.82392 15.3539 8.71765 15.1647 8.52852C14.9756 8.33938 14.8693 8.08287 14.8693 7.8154Z" fill="#3E3F5E"/>
</svg>