<svg width="36" height="40" viewBox="0 0 36 40" fill="none" xmlns="http://www.w3.org/2000/svg">
<g id="Group 552">
<g id="Group">
<path id="Vector" d="M18 20C23.524 20 28 15.524 28 10C28 4.476 23.524 0 18 0C12.476 0 8 4.476 8 10C8 15.522 12.476 20 18 20ZM18 4C21.308 4 24 6.692 24 10C24 13.308 21.308 16 18 16C14.692 16 12 13.308 12 10C12 6.692 14.692 4 18 4ZM24 24H12C5.374 24 0 29.372 0 36V40H4V36C4 31.59 7.588 28 12 28H24C28.412 28 32 31.59 32 36V40H36V36C36 29.372 30.626 24 24 24Z" fill="#CFD0D9"/>
</g>
<g id="Group 548">
<path id="Vector_2" d="M36.0009 19.98C33.9669 19.98 32.3109 18.3258 32.3109 16.29C32.3109 14.2542 33.9669 12.6 36.0009 12.6V9C31.9761 9 28.7109 12.2634 28.7109 16.29C28.7109 20.3166 31.9743 23.58 36.0009 23.58V19.98Z" fill="#CFD0D9"/>
<path id="Vector_3" d="M0 19.98C1.8 19.98 3.69 18.324 3.69 16.29C3.69 14.256 1.8 12.6 0 12.6V9C3.6 9 7.29 12.2634 7.29 16.29C7.29 20.3166 3.6 23.58 0 23.58V19.98Z" fill="#CFD0D9"/>
</g>
</g>
</svg>
