<svg xmlns="http://www.w3.org/2000/svg" width="21" height="21" viewBox="0 0 21 21" fill="none">
<path opacity="0.6" d="M0.590942 11.7646V5.31003C0.604052 4.66102 0.74492 4.02099 1.00546 3.42643C1.26599 2.83188 1.64111 2.29438 2.10939 1.84483C2.57767 1.39528 3.12988 1.04245 3.73457 0.806391C4.33926 0.570329 4.98456 0.455687 5.63356 0.469067H15.7188C16.3678 0.455687 17.0131 0.570329 17.6178 0.806391C18.2225 1.04245 18.7747 1.39528 19.243 1.84483C19.7112 2.29438 20.0863 2.83188 20.3469 3.42643C20.6074 4.02099 20.7483 4.66102 20.7614 5.31003V11.7646C20.7483 12.4136 20.6074 13.0536 20.3469 13.6482C20.0863 14.2427 19.7112 14.7801 19.243 15.2297C18.7747 15.6792 18.2225 16.032 17.6178 16.2681C17.0131 16.5042 16.3678 16.6188 15.7188 16.6054H8.63893L0.590942 20.6335V11.7646ZM2.60799 5.31003V17.3729L7.73733 14.8083L8.16293 14.5954H15.7188C16.4939 14.6199 17.2472 14.3367 17.8141 13.8076C18.381 13.2785 18.7154 12.5465 18.7444 11.7716V5.31704C18.7154 4.54211 18.381 3.81016 17.8141 3.28104C17.2472 2.75192 16.4939 2.46861 15.7188 2.49313H5.63356C4.86059 2.46827 4.10906 2.74974 3.54246 3.27611C2.97586 3.80248 2.64002 4.53129 2.60799 5.30399V5.31003ZM6.64208 11.5628C6.3746 11.5628 6.11809 11.4566 5.92896 11.2675C5.73983 11.0783 5.63356 10.8218 5.63356 10.5543C5.63356 10.2868 5.73983 10.0304 5.92896 9.84124C6.11809 9.6521 6.3746 9.54577 6.64208 9.54577H10.6762C10.9436 9.54577 11.2002 9.6521 11.3893 9.84124C11.5784 10.0304 11.6847 10.2868 11.6847 10.5543C11.6847 10.8218 11.5784 11.0783 11.3893 11.2675C11.2002 11.4566 10.9436 11.5628 10.6762 11.5628H6.64208ZM6.64208 7.52873C6.3746 7.52873 6.11809 7.42252 5.92896 7.23338C5.73983 7.04425 5.63356 6.78768 5.63356 6.5202C5.63356 6.25273 5.73983 5.99628 5.92896 5.80715C6.11809 5.61801 6.3746 5.51168 6.64208 5.51168H14.7103C14.9777 5.51168 15.2342 5.61801 15.4234 5.80715C15.6125 5.99628 15.7188 6.25273 15.7188 6.5202C15.7188 6.78768 15.6125 7.04425 15.4234 7.23338C15.2342 7.42252 14.9777 7.52873 14.7103 7.52873H6.64208Z" fill="#AFB0C0"/>
</svg>