<svg width="36" height="36" viewBox="0 0 36 36" fill="none" xmlns="http://www.w3.org/2000/svg">
<path d="M36 18C36 8.0604 27.9396 0 18 0C8.0586 0 0 8.0604 0 18C0 27.9414 8.0586 36 18 36C20.8188 36 23.4774 35.334 25.8516 34.1766L25.8696 34.209C25.9614 34.1586 26.0244 34.1028 26.1126 34.0524C31.9734 31.086 36 25.02 36 18ZM29.079 27.1944C27.9126 24.0534 24.0354 21.5424 20.7036 21.06C19.3518 20.8638 19.2114 20.2806 19.1592 20.061C18.8946 18.9576 19.8 17.0982 21.0222 16.2378C23.6898 14.3586 29.1744 15.3306 32.2758 16.1928C32.3496 16.785 32.4 17.3862 32.4 18C32.4 21.4956 31.1526 24.7014 29.079 27.1944ZM26.487 6.3846C26.4654 6.3846 26.4474 6.39 26.4258 6.39C23.9526 6.39 21.7296 5.3802 20.0934 3.7692C22.4622 4.1148 24.6384 5.0328 26.487 6.3846ZM3.6 18C3.6 13.9014 5.3208 10.2096 8.0694 7.587C10.3374 8.0766 12.8286 9.108 13.2354 10.035C13.2714 10.116 13.365 10.332 12.9996 10.8918C12.4686 11.7036 11.9142 12.4758 11.3868 13.2138C8.8866 16.7004 6.0534 20.6496 10.2222 24.318C11.1888 25.1676 11.6712 26.5554 11.3454 27.5454C11.0142 28.548 9.8784 28.9368 8.8218 29.0934C5.6304 26.451 3.6 22.4622 3.6 18ZM12.717 31.3866C13.9248 30.5244 14.5044 29.448 14.76 28.674C15.5376 26.3196 14.6466 23.418 12.5982 21.6144C11.133 20.3256 11.3886 19.3824 14.31 15.3108C14.868 14.5332 15.4494 13.7214 16.0092 12.8646C17.1972 11.0484 16.947 9.5346 16.5294 8.586C15.759 6.8364 13.7898 5.6952 11.9034 4.968C13.0518 4.428 14.2812 4.0392 15.57 3.8196C17.7948 7.5042 21.8142 9.99 26.424 9.99C27.5364 9.99 28.5948 9.7992 29.6208 9.5238C30.231 10.3572 30.7566 11.2536 31.1778 12.2094C27.6156 11.439 22.347 10.8972 18.9468 13.2948C16.7958 14.8068 14.9796 18.0666 15.6564 20.898C16.1388 22.9176 17.7894 24.2748 20.1852 24.6204C22.7214 24.9894 25.5186 27.054 25.8318 28.7856C25.8822 29.0664 26.0118 29.898 24.426 30.87C22.491 31.8402 20.313 32.4 18 32.4C16.1334 32.4 14.355 32.0328 12.717 31.3866Z" fill="#CFD0D9"/>
</svg>
