<svg width="41" height="41" viewBox="0 0 41 41" fill="none" xmlns="http://www.w3.org/2000/svg">
<path d="M34.5938 0H6.40625C2.86818 0 0 2.86818 0 6.40625V34.5938C0 38.1318 2.86818 41 6.40625 41H34.5938C38.1318 41 41 38.1318 41 34.5938V6.40625C41 2.86818 38.1318 0 34.5938 0Z" fill="#1877F2"/>
<path d="M30.75 20.5C30.75 14.8625 26.1375 10.25 20.5 10.25C14.8625 10.25 10.25 14.8625 10.25 20.5C10.25 25.625 13.9656 29.8531 18.8344 30.6219V23.4469H16.2719V20.5H18.8344V18.1937C18.8344 15.6312 20.3719 14.2219 22.6781 14.2219C23.8313 14.2219 24.9844 14.4781 24.9844 14.4781V17.0406H23.7031C22.4219 17.0406 22.0375 17.8094 22.0375 18.5781V20.5H24.8562L24.3438 23.4469H21.9094V30.75C27.0344 29.9813 30.75 25.625 30.75 20.5Z" fill="white"/>
</svg>
