<svg width="80" height="80" viewBox="0 0 80 80" fill="none" xmlns="http://www.w3.org/2000/svg">
<g id="Group 502">
<circle id="Ellipse 9" cx="40" cy="40" r="40" fill="#23D2E2"/>
<path id="Vector" d="M37.6002 30.4001C41.5711 30.4001 44.8004 33.6293 44.8004 37.6002C44.8004 41.5711 41.5711 44.8004 37.6002 44.8004C33.6293 44.8004 30.4001 41.5711 30.4001 37.6002C30.4001 33.6293 33.6293 30.4001 37.6002 30.4001ZM37.6002 28C32.2985 28 28 32.2985 28 37.6002C28 42.902 32.2985 47.2005 37.6002 47.2005C42.902 47.2005 47.2005 42.902 47.2005 37.6002C47.2005 32.2985 42.902 28 37.6002 28Z" fill="white"/>
<path id="Vector_2" d="M51.006 46.1984L47.2451 42.4375C46.8743 43.1731 46.4303 43.8655 45.9095 44.4943L49.3092 47.8952C49.6968 48.284 49.6968 48.9165 49.3092 49.3053C49.0548 49.5597 48.7584 49.5969 48.6048 49.5969C48.4499 49.5969 48.1535 49.5597 47.8991 49.3053L44.4983 45.9056C43.8706 46.4276 43.177 46.8716 42.4414 47.2412L46.2023 51.0021C46.8659 51.6657 47.7347 51.9969 48.6036 51.9969C49.4736 51.9969 50.3424 51.6657 51.006 51.0021C52.332 49.6749 52.332 47.5244 51.006 46.1984Z" fill="white"/>
</g>
</svg>
