<svg xmlns="http://www.w3.org/2000/svg" width="21" height="21" viewBox="0 0 21 21" fill="none">
  <path opacity="0.6" d="M11.2017 18.8395C12.6322 18.6559 13.9856 18.0862 15.1168 17.1916L16.5509 18.6247C15.0307 19.8866 13.1707 20.6699 11.2057 20.8757L11.2017 18.8395ZM3.83951 18.6247L5.27261 17.1916C6.40296 18.0857 7.75528 18.6553 9.18467 18.8395V20.8757C7.2195 20.6699 5.35945 19.8862 3.83951 18.6237V18.6247ZM16.5419 15.7605C17.4233 14.6254 17.9847 13.2749 18.1676 11.8494H20.227C20.0211 13.8142 19.2381 15.674 17.977 17.1946L16.5419 15.7605ZM0.159393 11.8494H2.21879C2.40317 13.2747 2.96556 14.6248 3.84757 15.7595L2.40943 17.1986C1.1475 15.677 0.364551 13.8156 0.159393 11.8494ZM5.15058 10.8409C5.14725 9.78365 5.4773 8.75228 6.09382 7.89339C6.71034 7.0345 7.58193 6.39183 8.58469 6.05676C9.58744 5.72169 10.6703 5.71125 11.6794 6.02697C12.6884 6.34269 13.5722 6.96847 14.2051 7.81534H10.1932C9.63798 7.81304 9.09284 7.96355 8.61747 8.25041C8.1421 8.53727 7.75485 8.94941 7.49808 9.44169C7.24132 9.93397 7.12495 10.4874 7.16174 11.0414C7.19854 11.5954 7.38708 12.1286 7.70669 12.5826C8.02631 13.0365 8.46468 13.3939 8.97381 13.6153C9.48294 13.8368 10.0432 13.9139 10.5932 13.8382C11.1432 13.7625 11.6618 13.5369 12.0922 13.1861C12.5226 12.8353 12.8481 12.3729 13.0332 11.8494H10.1932V9.83238H15.2358V11.8494C14.9804 12.9956 14.3413 14.0202 13.4244 14.7538C12.5074 15.4874 11.3675 15.8859 10.1932 15.8835C8.85581 15.8835 7.57321 15.3522 6.62754 14.4066C5.68186 13.4609 5.15058 12.1783 5.15058 10.8409ZM18.1676 9.83238C17.9837 8.40664 17.4212 7.05618 16.5388 5.92134L17.977 4.48316C19.2385 6.00353 20.0214 7.86346 20.227 9.82832L18.1676 9.83238ZM0.159393 9.83238C0.364971 7.86753 1.14792 6.00759 2.40943 4.48722L3.84757 5.92534C2.96618 7.05926 2.40384 8.40817 2.21879 9.83238H0.159393ZM11.2017 2.84228V0.806091C13.1666 1.01167 15.0265 1.79462 16.5469 3.05612L15.1128 4.48926C13.9826 3.59561 12.6307 3.02625 11.2017 2.84228ZM3.83951 3.05612C5.35969 1.79431 7.21972 1.01131 9.18467 0.806091V2.84228C7.7542 3.02584 6.40074 3.59557 5.26959 4.49024L3.83951 3.05612Z" fill="#AFB0C0"/>
</svg>