<svg width="41" height="41" viewBox="0 0 41 41" fill="none" xmlns="http://www.w3.org/2000/svg">
<path d="M41 6.40625C41 2.86818 38.1318 0 34.5938 0H6.40625C2.86818 0 0 2.86818 0 6.40625V34.5938C0 38.1318 2.86818 41 6.40625 41H34.5938C38.1318 41 41 38.1318 41 34.5938V6.40625Z" fill="white"/>
<path fill-rule="evenodd" clip-rule="evenodd" d="M30.5314 20.733C30.5314 20.0062 30.4662 19.3073 30.3451 18.6364H20.6914V22.6013H26.2078C25.9702 23.8826 25.248 24.9681 24.1624 25.695V28.2668H27.4751C29.4132 26.4823 30.5314 23.8546 30.5314 20.733Z" fill="#4285F4"/>
<path fill-rule="evenodd" clip-rule="evenodd" d="M20.691 30.75C23.4585 30.75 25.7788 29.8321 27.4747 28.2667L24.1621 25.6948C23.2442 26.3098 22.0701 26.6733 20.691 26.6733C18.0214 26.6733 15.7617 24.8702 14.9557 22.4474H11.5312V25.1031C13.2178 28.453 16.6842 30.75 20.691 30.75Z" fill="#34A853"/>
<path fill-rule="evenodd" clip-rule="evenodd" d="M14.9561 22.4474C14.7511 21.8324 14.6346 21.1755 14.6346 20.4999C14.6346 19.8244 14.7511 19.1674 14.9561 18.5524V15.8967H11.5316C10.8374 17.2805 10.4414 18.8459 10.4414 20.4999C10.4414 22.1539 10.8374 23.7194 11.5316 25.1031L14.9561 22.4474Z" fill="#FBBC05"/>
<path fill-rule="evenodd" clip-rule="evenodd" d="M20.691 14.3267C22.1959 14.3267 23.5471 14.8439 24.6093 15.8596L27.5492 12.9197C25.7741 11.2657 23.4539 10.25 20.691 10.25C16.6842 10.25 13.2178 12.5469 11.5312 15.8968L14.9557 18.5525C15.7617 16.1298 18.0214 14.3267 20.691 14.3267Z" fill="#EA4335"/>
</svg>
