<svg width="36" height="35" viewBox="0 0 36 35" fill="none" xmlns="http://www.w3.org/2000/svg">
<path d="M19.0685 3.64605C18.4714 3.05163 17.5286 3.05163 16.9315 3.64605L2.61134 17.9037C1.99665 18.5157 1.01997 18.495 0.429862 17.8575C-0.160242 17.22 -0.14031 16.207 0.474381 15.595L14.7946 1.33744C16.5857 -0.445816 19.4144 -0.445811 21.2054 1.33744L35.5256 15.595C36.1403 16.207 36.1602 17.22 35.5701 17.8575C34.98 18.495 34.0034 18.5157 33.3887 17.9037L19.0685 3.64605Z" fill="#CFD0D9"/>
<path d="M5.26657 18.4033C5.18865 18.5922 5.14477 18.7998 5.14292 19.0178L5.26657 18.4033Z" fill="white"/>
<path d="M5.26657 18.4033C5.34543 18.2117 5.46189 18.0329 5.61568 17.8794L5.26657 18.4033Z" fill="white"/>
<path d="M5.6218 17.8734C5.61976 17.8754 5.61772 17.8774 5.61568 17.8794L5.6218 17.8734Z" fill="white"/>
<path fill-rule="evenodd" clip-rule="evenodd" d="M5.6218 17.8734L16.8637 6.74421C17.4996 6.11463 18.5004 6.11465 19.1363 6.74421L30.3782 17.8733C30.3802 17.8753 30.3823 17.8774 30.3843 17.8794C30.538 18.0328 30.6544 18.2113 30.7332 18.4028C30.8116 18.5926 30.8556 18.8013 30.8571 19.0204C30.8571 19.0253 30.8572 19.0302 30.8571 19.035V29.6996C30.8571 32.3508 28.7849 34.5 26.2286 34.5H9.77143C7.21514 34.5 5.14286 32.3508 5.14286 29.6996V19.0354M27.7714 19.7169V29.6996C27.7714 30.5834 27.0807 31.2998 26.2286 31.2998H9.77143C8.91933 31.2998 8.22857 30.5834 8.22857 29.6996V19.7169L18 10.0434L27.7714 19.7169Z" fill="#CFD0D9"/>
</svg>
