<svg xmlns="http://www.w3.org/2000/svg" width="21" height="21" viewBox="0 0 21 21" fill="none">
  <path opacity="0.6" d="M16.1069 20.6265H2.91745C2.16484 20.6298 1.4417 20.3342 0.906778 19.8048C0.371859 19.2753 0.0688661 18.5552 0.0643311 17.8026V11.4489C0.0685997 10.6962 0.371493 9.97598 0.90647 9.44649C1.44145 8.917 2.16476 8.62161 2.91745 8.62509H5.03536L8.45728 1.05108C8.53741 0.874386 8.66679 0.724579 8.82994 0.619575C8.99308 0.514572 9.18303 0.458793 9.37704 0.459039C10.3724 0.453673 11.3292 0.843711 12.0372 1.5434C12.7453 2.24309 13.1465 3.19526 13.1529 4.19065L13.1761 6.51424H18.2188C18.0685 6.49104 18.3721 6.51424 18.2188 6.51424C18.9782 6.62719 20.1995 6.76133 20.2358 7.52276C20.2721 8.2842 20.2247 9.68201 20.2358 10.5483L18.9247 18.2323C18.8152 18.9007 18.4717 19.5084 17.9555 19.947C17.4394 20.3855 16.7842 20.6264 16.1069 20.6265ZM7.12501 18.6165H16.1009C16.2999 18.6205 16.4938 18.5531 16.6475 18.4265C16.8012 18.3 16.9045 18.1228 16.9389 17.9267L18.2127 9.75759C18.2286 9.65494 18.2239 9.55023 18.1988 9.44944C18.1736 9.34865 18.1287 9.25391 18.0665 9.17072C17.8371 8.89134 17.5433 8.67187 17.2102 8.53128C17.1649 8.52422 17.2556 8.52523 17.2102 8.53128H12.1676C11.6099 8.53128 11.1591 7.06893 11.1591 6.51424L11.1329 4.19459C11.1303 3.8395 11.0181 3.49388 10.8116 3.20502C10.6051 2.91617 10.3143 2.69822 9.97911 2.58097L7.12501 9.53981V18.6165ZM3.09091 10.5483C2.84422 10.561 2.60939 10.6581 2.42578 10.8234C2.24217 10.9886 2.12092 11.212 2.08239 11.456V17.8096C2.0869 18.0273 2.17735 18.2344 2.334 18.3856C2.49065 18.5367 2.70079 18.6198 2.91847 18.6165H5.10796V10.5483H3.09091Z" fill="#AFB0C0"/>
</svg>