<svg width="36" height="36" viewBox="0 0 36 36" fill="none" xmlns="http://www.w3.org/2000/svg">
<path d="M21.6 3.6C23.5854 3.6 25.2 5.2146 25.2 7.20001V16.2C25.2 18.1854 23.5854 19.8 21.6 19.8H14.4H13.9572L13.527 19.908L3.6 22.3884V16.2V7.20001C3.6 5.2146 5.2146 3.6 7.20001 3.6H21.6ZM21.6 0H7.20001C3.2238 0 0 3.2238 0 7.20001V16.2V27L14.4 23.4H21.6C25.5762 23.4 28.8 20.1762 28.8 16.2V7.20001C28.8 3.2238 25.5762 0 21.6 0Z" fill="#CFD0D9"/>
<path fill-rule="evenodd" clip-rule="evenodd" d="M21.5992 9.02473C21.5992 10.0075 20.8036 10.8031 19.8226 10.8031H8.97582C7.99482 10.8031 7.19922 10.0075 7.19922 9.02473V8.98153C7.19922 7.99873 7.99482 7.20312 8.97582 7.20312H19.8208C20.8036 7.20312 21.5992 7.99873 21.5992 8.98153V9.02473Z" fill="#CFD0D9"/>
<path fill-rule="evenodd" clip-rule="evenodd" d="M17.9992 14.4862C17.9992 15.4348 17.2306 16.2016 16.2838 16.2016H8.91462C7.96782 16.2016 7.19922 15.4348 7.19922 14.4862V14.317C7.19922 13.3684 7.96782 12.6016 8.91462 12.6016H16.2838C17.2306 12.6016 17.9992 13.3684 17.9992 14.317V14.4862Z" fill="#CFD0D9"/>
<path d="M30.5995 9.25781V13.1026C31.6705 13.7272 32.3995 14.8756 32.3995 16.2022V25.2022V31.3906L22.4707 28.9084L22.0423 28.8022H21.5995H14.3995C13.0729 28.8022 11.9245 28.0732 11.2999 27.0022H7.45508C8.25788 30.1018 11.0497 32.4022 14.3995 32.4022H21.5995L35.9995 36.0022V25.2022V16.2022C35.9995 12.8524 33.6991 10.0606 30.5995 9.25781Z" fill="#CFD0D9"/>
</svg>
