<svg xmlns="http://www.w3.org/2000/svg" width="23" height="7" viewBox="0 0 23 7" fill="none">
<path opacity="0.4" d="M19.2245 6.34096C18.6261 6.34096 18.0412 6.16349 17.5436 5.83104C17.0461 5.49858 16.6582 5.0261 16.4292 4.47325C16.2002 3.9204 16.1403 3.31204 16.2571 2.72514C16.3738 2.13824 16.662 1.59911 17.0851 1.17597C17.5082 0.752841 18.0474 0.464674 18.6343 0.347932C19.2212 0.23119 19.8295 0.291104 20.3824 0.520103C20.9352 0.749101 21.4077 1.13695 21.7402 1.6345C22.0726 2.13205 22.2501 2.71699 22.2501 3.31539C22.2501 4.11782 21.9313 4.88741 21.3639 5.45481C20.7965 6.02221 20.027 6.34096 19.2245 6.34096ZM19.2245 2.30687C19.0251 2.30687 18.8301 2.36601 18.6642 2.47682C18.4984 2.58764 18.3691 2.74516 18.2928 2.92944C18.2164 3.11372 18.1965 3.31649 18.2354 3.51212C18.2743 3.70776 18.3704 3.88747 18.5114 4.02851C18.6524 4.16956 18.8322 4.26561 19.0278 4.30452C19.2234 4.34344 19.4262 4.32349 19.6105 4.24716C19.7948 4.17082 19.9523 4.04152 20.0631 3.87567C20.1739 3.70982 20.233 3.51486 20.233 3.31539C20.233 3.04792 20.1268 2.79141 19.9376 2.60227C19.7485 2.41314 19.492 2.30687 19.2245 2.30687ZM11.1563 6.34096C10.5579 6.34096 9.973 6.16349 9.47545 5.83104C8.9779 5.49858 8.59005 5.0261 8.36105 4.47325C8.13205 3.9204 8.07214 3.31204 8.18888 2.72514C8.30562 2.13824 8.59379 1.59911 9.01692 1.17597C9.44006 0.752841 9.97918 0.464674 10.5661 0.347932C11.153 0.23119 11.7613 0.291104 12.3142 0.520103C12.867 0.749101 13.3395 1.13695 13.672 1.6345C14.0044 2.13205 14.1819 2.71699 14.1819 3.31539C14.1819 4.11782 13.8632 4.88741 13.2958 5.45481C12.7284 6.02221 11.9588 6.34096 11.1563 6.34096ZM11.1563 2.30687C10.9569 2.30687 10.7619 2.36601 10.5961 2.47682C10.4302 2.58764 10.3009 2.74516 10.2246 2.92944C10.1482 3.11372 10.1283 3.31649 10.1672 3.51212C10.2061 3.70776 10.3022 3.88747 10.4432 4.02851C10.5843 4.16956 10.764 4.26561 10.9596 4.30452C11.1552 4.34344 11.358 4.32349 11.5423 4.24716C11.7266 4.17082 11.8841 4.04152 11.9949 3.87567C12.1057 3.70982 12.1649 3.51486 12.1649 3.31539C12.1649 3.04792 12.0586 2.79141 11.8695 2.60227C11.6803 2.41314 11.4238 2.30687 11.1563 2.30687ZM3.08816 6.34096C2.48976 6.34096 1.90482 6.16349 1.40727 5.83104C0.909714 5.49858 0.521867 5.0261 0.292869 4.47325C0.0638705 3.9204 0.00395612 3.31204 0.120698 2.72514C0.237441 2.13824 0.525607 1.59911 0.948741 1.17597C1.37187 0.752841 1.911 0.464674 2.4979 0.347932C3.08481 0.23119 3.69316 0.291104 4.24601 0.520103C4.79886 0.749101 5.27135 1.13695 5.6038 1.6345C5.93626 2.13205 6.11373 2.71699 6.11373 3.31539C6.11373 4.11782 5.79498 4.88741 5.22758 5.45481C4.66017 6.02221 3.89059 6.34096 3.08816 6.34096ZM3.08816 2.30687C2.88869 2.30687 2.69373 2.36601 2.52788 2.47682C2.36203 2.58764 2.23273 2.74516 2.1564 2.92944C2.08006 3.11372 2.06011 3.31649 2.09903 3.51212C2.13794 3.70776 2.234 3.88747 2.37504 4.02851C2.51608 4.16956 2.69579 4.26561 2.89143 4.30452C3.08706 4.34344 3.28983 4.32349 3.47411 4.24716C3.65839 4.17082 3.81591 4.04152 3.92673 3.87567C4.03754 3.70982 4.09668 3.51486 4.09668 3.31539C4.09668 3.04792 3.99041 2.79141 3.80128 2.60227C3.61214 2.41314 3.35564 2.30687 3.08816 2.30687Z" fill="#AFB0C0"/>
</svg>