<svg width="36" height="42" viewBox="0 0 36 42" fill="none" xmlns="http://www.w3.org/2000/svg">
<path d="M28.8 5C30.7854 5 32.4 6.3455 32.4 8V23C32.4 24.6545 30.7854 26 28.8 26H7.2C5.2146 26 3.6 24.6545 3.6 23V8C3.6 6.3455 5.2146 5 7.2 5H28.8ZM28.8 2H7.2C3.2238 2 0 4.6865 0 8V23C0 26.3135 3.2238 29 7.2 29H28.8C32.7762 29 36 26.3135 36 23V8C36 4.6865 32.7762 2 28.8 2Z" fill="#CFD0D9"/>
<path d="M15.9687 12.2C16.0934 12.2 16.2364 12.2407 16.3929 12.3265L21.1693 14.9665C21.7059 15.2602 21.734 15.7409 21.195 16.0346L16.3941 18.6746C16.2364 18.7604 16.0934 18.8 15.9687 18.8C15.6656 18.8 15.4737 18.5602 15.4737 18.1488V12.8523C15.4737 12.4387 15.6656 12.2 15.9687 12.2ZM15.9687 10C14.2931 10 13.0293 11.2265 13.0293 12.8523V18.1488C13.0293 19.7746 14.2931 21 15.9687 21C16.5517 21 17.1213 20.8493 17.6627 20.5545L22.4685 17.9123C23.4414 17.3832 24.0281 16.4856 24.0293 15.5176C24.0305 14.5408 23.4353 13.6311 22.4355 13.0866L17.6713 10.4521C17.1213 10.1507 16.5505 10 15.9687 10Z" fill="#CFD0D9"/>
<rect x="10.0273" width="2" height="7" rx="1" fill="#CFD0D9"/>
<rect x="24.0273" width="2" height="7" rx="1" fill="#CFD0D9"/>
<path d="M11.4521 30.2557L9.86552 31.7809C9.71938 31.9214 9.71123 32.1427 9.84698 32.2839L11.3209 33.8171C11.3839 33.8827 11.473 33.9232 11.5688 33.9184L22.557 33.9525L22.696 30.1798L11.7127 30.1508C11.612 30.1505 11.5251 30.1855 11.4521 30.2557ZM25.4765 33.9602C25.8692 33.9612 26.198 33.6451 26.2124 33.2528L26.2992 30.8986C26.3136 30.5063 26.0082 30.1885 25.6155 30.1875L23.7732 30.1826L23.6342 33.9553L25.4765 33.9602Z" fill="#CFD0D9"/>
</svg>
