<svg width="36" height="40" viewBox="0 0 36 40" fill="none" xmlns="http://www.w3.org/2000/svg">
<path d="M35.1677 28.2544C35.1217 28.2184 30.6857 24.7383 30.6857 13.2142C30.6857 5.92808 24.9956 0 18.0095 0C11.0234 0 5.33732 5.92808 5.33732 13.2142C5.33732 24.7383 0.897261 28.2184 0.88126 28.2304C0.151251 28.7384 -0.168754 29.6804 0.0872497 30.5464C0.345253 31.4144 1.12126 32.0064 2.00128 32.0064H34.0157C34.8817 32.0064 35.6357 31.4204 35.9017 30.5684C36.1737 29.7224 35.8657 28.7784 35.1677 28.2544ZM6.17333 27.8784C7.74735 25.0543 9.34137 20.4203 9.34137 13.2142C9.34137 8.20411 13.2314 4.13005 18.0095 4.13005C22.7915 4.13005 26.6796 8.20611 26.6796 13.2142C26.6796 20.4203 28.2716 25.0543 29.8456 27.8804L6.17333 27.8784ZM22.8376 34.2925C21.6975 33.7264 20.2515 34.0625 19.5995 35.0545C19.3475 35.4365 18.9455 35.7065 18.4655 35.8205C17.9975 35.9225 17.5095 35.8665 17.0895 35.6525C16.8135 35.5125 16.5795 35.3045 16.4175 35.0585C15.7675 34.0664 14.3174 33.7224 13.1814 34.2885C12.0454 34.8545 11.6494 36.1165 12.3014 37.1045C12.8734 37.9805 13.7014 38.7105 14.6894 39.2145C15.7095 39.7345 16.8435 40.0005 17.9955 40.0005C18.5575 40.0005 19.1235 39.9385 19.6815 39.8085C21.3935 39.4145 22.8276 38.4565 23.7136 37.1125C24.3656 36.1225 23.9696 34.8645 22.8376 34.2925Z" fill="#CFD0D9"/>
</svg>
