<svg xmlns="http://www.w3.org/2000/svg" width="32" height="9" viewBox="0 0 32 9" fill="none">
  <path opacity="0.4" d="M26.8078 8.46565C25.9706 8.46565 25.1523 8.21737 24.4562 7.75226C23.7601 7.28715 23.2175 6.62614 22.8972 5.8527C22.5768 5.07925 22.493 4.22816 22.6563 3.40707C22.8196 2.58599 23.2228 1.83174 23.8147 1.23978C24.4067 0.647807 25.1609 0.244658 25.982 0.0813347C26.8031 -0.0819889 27.6542 0.00183202 28.4277 0.322203C29.2011 0.642574 29.8621 1.18518 30.3272 1.88126C30.7923 2.57734 31.0406 3.39568 31.0406 4.23284C31.0406 5.35545 30.5947 6.43211 29.8009 7.22591C29.0071 8.01972 27.9304 8.46565 26.8078 8.46565ZM26.8078 2.82191C26.5287 2.82191 26.256 2.90464 26.024 3.05968C25.7919 3.21471 25.611 3.43508 25.5042 3.69289C25.3975 3.95071 25.3695 4.23438 25.424 4.50807C25.4784 4.78177 25.6128 5.03318 25.8101 5.23051C26.0075 5.42783 26.2589 5.56221 26.5326 5.61665C26.8063 5.67109 27.0899 5.64318 27.3477 5.53639C27.6056 5.4296 27.8259 5.24871 27.981 5.01668C28.136 4.78465 28.2187 4.5119 28.2187 4.23284C28.2187 3.85864 28.0701 3.49979 27.8055 3.23518C27.5409 2.97058 27.182 2.82191 26.8078 2.82191ZM15.5203 8.46565C14.6832 8.46565 13.8648 8.21737 13.1687 7.75226C12.4727 7.28715 11.93 6.62614 11.6097 5.8527C11.2893 5.07925 11.2055 4.22816 11.3688 3.40707C11.5321 2.58599 11.9353 1.83174 12.5273 1.23978C13.1192 0.647807 13.8735 0.244658 14.6945 0.0813347C15.5156 -0.0819889 16.3667 0.00183202 17.1402 0.322203C17.9136 0.642574 18.5746 1.18518 19.0397 1.88126C19.5048 2.57734 19.7531 3.39568 19.7531 4.23284C19.7531 5.35545 19.3072 6.43211 18.5134 7.22591C17.7196 8.01972 16.6429 8.46565 15.5203 8.46565ZM15.5203 2.82191C15.2413 2.82191 14.9685 2.90464 14.7365 3.05968C14.5045 3.21471 14.3236 3.43508 14.2168 3.69289C14.11 3.95071 14.0821 4.23438 14.1365 4.50807C14.191 4.78177 14.3253 5.03318 14.5227 5.23051C14.72 5.42783 14.9714 5.56221 15.2451 5.61665C15.5188 5.67109 15.8025 5.64318 16.0603 5.53639C16.3181 5.4296 16.5385 5.24871 16.6935 5.01668C16.8485 4.78465 16.9313 4.5119 16.9313 4.23284C16.9313 3.85864 16.7826 3.49979 16.518 3.23518C16.2534 2.97058 15.8945 2.82191 15.5203 2.82191ZM4.23284 8.46565C3.39567 8.46565 2.57734 8.21737 1.88126 7.75226C1.18518 7.28715 0.642574 6.62614 0.322203 5.8527C0.00183202 5.07925 -0.0819889 4.22816 0.0813347 3.40707C0.244658 2.58599 0.647807 1.83174 1.23978 1.23978C1.83174 0.647807 2.58599 0.244658 3.40707 0.0813347C4.22816 -0.0819889 5.07925 0.00183202 5.8527 0.322203C6.62614 0.642574 7.28715 1.18518 7.75226 1.88126C8.21736 2.57734 8.46565 3.39568 8.46565 4.23284C8.46565 5.35545 8.01972 6.43211 7.22591 7.22591C6.43211 8.01972 5.35545 8.46565 4.23284 8.46565ZM4.23284 2.82191C3.95379 2.82191 3.68104 2.90464 3.44901 3.05968C3.21698 3.21471 3.03609 3.43508 2.9293 3.69289C2.82251 3.95071 2.7946 4.23438 2.84904 4.50807C2.90348 4.78177 3.03786 5.03318 3.23518 5.23051C3.43251 5.42783 3.68392 5.56221 3.95762 5.61665C4.23131 5.67109 4.51498 5.64318 4.7728 5.53639C5.03061 5.4296 5.25098 5.24871 5.40601 5.01668C5.56105 4.78465 5.64378 4.5119 5.64378 4.23284C5.64378 3.85864 5.49511 3.49979 5.23051 3.23518C4.9659 2.97058 4.60705 2.82191 4.23284 2.82191Z" fill="#AFB0C0"/>
</svg>