<svg width="29" height="29" viewBox="0 0 29 29" fill="none" xmlns="http://www.w3.org/2000/svg">
<g id="Group 646">
<path id="Vector" d="M23.2 0H5.8C2.59695 0 0 2.59695 0 5.8V23.2C0 26.4031 2.59695 29 5.8 29H23.2C26.4031 29 29 26.4031 29 23.2V5.8C29 2.59695 26.4031 0 23.2 0ZM5.8 2.9H23.2C24.7994 2.9 26.1 4.20065 26.1 5.8V15.0901L24.2193 13.2095C23.1318 12.1206 21.705 11.5768 20.2782 11.5768C18.8514 11.5768 17.4247 12.1206 16.3357 13.2095L12.0147 17.5305L11.6392 17.155C10.8228 16.3386 9.7527 15.9312 8.6826 15.9312C7.6125 15.9312 6.5424 16.3401 5.7246 17.155L2.9 19.9839V5.8C2.9 4.20065 4.20065 2.9 5.8 2.9ZM23.2 26.1H5.8C4.4689 26.1 3.3553 25.1938 3.01745 23.9685L7.77635 19.2082C8.10405 18.8805 8.4854 18.8326 8.68405 18.8326C8.8827 18.8326 9.2626 18.8805 9.5903 19.2067L9.96585 19.5823L12.0161 21.6325L14.065 19.5823L18.3875 15.2598C18.892 14.7552 19.5634 14.4768 20.2782 14.4768C20.9916 14.4768 21.663 14.7552 22.1691 15.2612L26.1 19.1893V23.2C26.1 24.7994 24.7994 26.1 23.2 26.1Z" fill="#CFD0D9"/>
<path id="Vector_2" d="M8.69998 13.0501C11.1026 13.0501 13.05 11.1013 13.05 8.7001C13.05 6.29745 11.1026 4.3501 8.69998 4.3501C6.29733 4.3501 4.34998 6.29745 4.34998 8.7001C4.34998 11.1013 6.29733 13.0501 8.69998 13.0501ZM8.69998 7.2501C9.49893 7.2501 10.15 7.90115 10.15 8.7001C10.15 9.5005 9.49893 10.1501 8.69998 10.1501C7.90103 10.1501 7.24998 9.5005 7.24998 8.7001C7.24998 7.90115 7.90103 7.2501 8.69998 7.2501Z" fill="#CFD0D9"/>
</g>
</svg>
