<svg xmlns="http://www.w3.org/2000/svg" width="21" height="21" viewBox="0 0 21 21" fill="none">
  <path opacity="0.4" d="M2.35512 20.9489C1.82017 20.9489 1.30715 20.7364 0.928882 20.3581C0.550613 19.9798 0.338074 19.4668 0.338074 18.9318V16.9148C0.338074 16.3798 0.550613 15.8668 0.928882 15.4885C1.30715 15.1102 1.82017 14.8977 2.35512 14.8977H12.4403C12.9753 14.8977 13.4883 15.1102 13.8666 15.4885C14.2449 15.8668 14.4574 16.3798 14.4574 16.9148V18.9318C14.4574 19.4668 14.2449 19.9798 13.8666 20.3581C13.4883 20.7364 12.9753 20.9489 12.4403 20.9489H2.35512ZM2.35512 18.9318H12.4403V16.9148H2.35512V18.9318ZM2.35512 13.8892C1.82017 13.8892 1.30715 13.6767 0.928882 13.2984C0.550613 12.9202 0.338074 12.4071 0.338074 11.8722V9.85512C0.338074 9.32016 0.550613 8.80712 0.928882 8.42885C1.30715 8.05058 1.82017 7.83807 2.35512 7.83807H18.4915C19.0264 7.83807 19.5395 8.05058 19.9177 8.42885C20.296 8.80712 20.5085 9.32016 20.5085 9.85512V11.8722C20.5085 12.4071 20.296 12.9202 19.9177 13.2984C19.5395 13.6767 19.0264 13.8892 18.4915 13.8892H2.35512ZM2.35512 11.8722H18.4915V9.85512H2.35512V11.8722ZM2.35512 6.82955C1.82017 6.82955 1.30715 6.61704 0.928882 6.23877C0.550613 5.8605 0.338074 5.34746 0.338074 4.8125V2.79546C0.338074 2.2605 0.550613 1.74746 0.928882 1.36919C1.30715 0.99092 1.82017 0.778412 2.35512 0.778412H6.38921C6.92416 0.778412 7.43718 0.99092 7.81545 1.36919C8.19372 1.74746 8.40626 2.2605 8.40626 2.79546V4.8125C8.40626 5.34746 8.19372 5.8605 7.81545 6.23877C7.43718 6.61704 6.92416 6.82955 6.38921 6.82955H2.35512ZM2.35512 4.8125H6.38921V2.79546H2.35512V4.8125Z" fill="#AFB0C0"/>
</svg>