<svg xmlns="http://www.w3.org/2000/svg" width="88" height="89" viewBox="0 0 88 89" fill="none">
  <path d="M44 88.312C68.3005 88.312 88 68.5549 88 44.1833C88 19.8118 68.3005 0.0546875 44 0.0546875C19.6995 0.0546875 0 19.8118 0 44.1833C0 68.5549 19.6995 88.312 44 88.312Z" fill="url(#paint0_linear_1_1648)"/>
  <path fill-rule="evenodd" clip-rule="evenodd" d="M39.3829 25.5722C39.3829 24.5744 38.6078 23.7656 37.6516 23.7656C36.6954 23.7656 35.9203 24.5744 35.9203 25.5722V26.1744H33.6118C28.8308 26.1744 24.9551 30.2184 24.9551 35.2071V56.8856C24.9551 61.8743 28.8308 65.9184 33.6118 65.9184H54.3879C59.1689 65.9184 63.0446 61.8743 63.0446 56.8856V35.2071C63.0446 30.2184 59.1689 26.1744 54.3879 26.1744H52.0795V25.5722C52.0795 24.5744 51.3043 23.7656 50.3481 23.7656C49.3919 23.7656 48.6168 24.5744 48.6168 25.5722V26.1744H39.3829V25.5722ZM48.6168 29.7874H39.3829V30.3896C39.3829 31.3874 38.6078 32.1962 37.6516 32.1962C36.6954 32.1962 35.9203 31.3874 35.9203 30.3896V29.7874H33.6118C30.7432 29.7874 28.4178 32.2139 28.4178 35.2071V56.8856C28.4178 59.8788 30.7432 62.3053 33.6118 62.3053H54.3879C57.2565 62.3053 59.5819 59.8788 59.5819 56.8856V35.2071C59.5819 32.2139 57.2565 29.7874 54.3879 29.7874H52.0795V30.3896C52.0795 31.3874 51.3043 32.1962 50.3481 32.1962C49.3919 32.1962 48.6168 31.3874 48.6168 30.3896V29.7874Z" fill="white"/>
  <path d="M41.2789 41.3759C41.4603 41.3759 41.6685 41.4353 41.8962 41.5606L48.8491 45.4148C49.6302 45.8436 49.6711 46.5453 48.8865 46.9741L41.898 50.8283C41.6685 50.9536 41.4603 51.0114 41.2789 51.0114C40.8376 51.0114 40.5583 50.6613 40.5583 50.0607V42.3282C40.5583 41.7244 40.8376 41.3759 41.2789 41.3759ZM41.2789 38.1641C38.8396 38.1641 37 39.9547 37 42.3282V50.0607C37 52.4342 38.8396 54.2232 41.2789 54.2232C42.1275 54.2232 42.9566 54.0032 43.7448 53.5728L50.7404 49.7154C52.1566 48.943 53.0106 47.6325 53.0123 46.2193C53.0141 44.7933 52.1477 43.4652 50.6923 42.6703L43.7572 38.8241C42.9566 38.3841 42.1257 38.1641 41.2789 38.1641Z" fill="white"/>
  <defs>
    <linearGradient id="paint0_linear_1_1648" x1="88" y1="0.0546875" x2="-0.256922" y2="88.0543" gradientUnits="userSpaceOnUse">
      <stop offset="0.143939" stop-color="#23D2E2"/>
      <stop offset="1" stop-color="#615DFA"/>
    </linearGradient>
  </defs>
</svg>