<svg xmlns="http://www.w3.org/2000/svg" width="19" height="21" viewBox="0 0 19 21" fill="none">
  <path opacity="0.6" d="M10.9892 16.9021C10.9891 16.5837 11.0294 16.2664 11.1092 15.9581L6.48711 13.235C5.80215 13.9061 4.88141 14.2821 3.92246 14.282C2.9328 14.282 1.98369 13.8888 1.28389 13.189C0.584096 12.4892 0.190918 11.54 0.190918 10.5504C0.190918 9.56069 0.584096 8.61164 1.28389 7.91185C1.98369 7.21205 2.9328 6.81887 3.92246 6.81887C4.88155 6.81902 5.80231 7.19517 6.48711 7.86666L11.1072 5.13668C11.028 4.82965 10.988 4.51381 10.9882 4.19673C10.9951 3.46723 11.2178 2.75603 11.6282 2.15285C12.0386 1.54967 12.6182 1.08148 13.2942 0.807128C13.9702 0.532773 14.7123 0.464554 15.4269 0.611136C16.1416 0.757717 16.7969 1.11256 17.3103 1.63086C17.8237 2.14917 18.1722 2.80779 18.312 3.52381C18.4518 4.23983 18.3765 4.98114 18.0958 5.65449C17.815 6.32783 17.3413 6.90313 16.7342 7.30774C16.1272 7.71235 15.414 7.92819 14.6844 7.92822C13.7255 7.92812 12.8048 7.55235 12.1197 6.88141L7.49871 9.6104C7.65714 10.2274 7.65714 10.8745 7.49871 11.4914L12.1218 14.2144C12.8064 13.5442 13.7263 13.1688 14.6844 13.1685C15.4239 13.1616 16.1488 13.3744 16.7671 13.7802C17.3854 14.1859 17.8691 14.7662 18.157 15.4475C18.4448 16.1287 18.5238 16.88 18.3838 17.6062C18.2438 18.3324 17.8913 19.0005 17.3708 19.5259C16.8504 20.0513 16.1856 20.4103 15.4608 20.5572C14.736 20.704 13.9839 20.6322 13.3 20.3508C12.6161 20.0695 12.0312 19.5912 11.6196 18.9768C11.208 18.3624 10.9882 17.6396 10.9882 16.9L10.9892 16.9021ZM12.9992 16.9021C13.0047 17.2344 13.1083 17.5576 13.297 17.8311C13.4856 18.1047 13.7509 18.3163 14.0595 18.4397C14.368 18.563 14.7061 18.5925 15.0314 18.5242C15.3566 18.456 15.6544 18.2932 15.8874 18.0563C16.1204 17.8194 16.2782 17.5189 16.341 17.1925C16.4038 16.8662 16.3688 16.5287 16.2404 16.2222C16.112 15.9157 15.8959 15.654 15.6193 15.47C15.3426 15.2859 15.0177 15.1876 14.6854 15.1876C14.4089 15.1886 14.1368 15.2579 13.8935 15.3893C13.6502 15.5208 13.4431 15.7103 13.2906 15.941C13.275 15.9756 13.2575 16.0092 13.2382 16.0418C13.2202 16.0724 13.2007 16.102 13.1797 16.1306C13.0606 16.3703 12.9988 16.6344 12.9992 16.9021ZM2.23825 10.5484C2.23476 10.9991 2.41024 11.4328 2.7262 11.7543C3.04216 12.0757 3.47274 12.2586 3.92345 12.2628C4.21367 12.2619 4.4987 12.1858 4.75075 12.042C5.0028 11.8981 5.21329 11.6914 5.36163 11.4419L5.37979 11.4097L5.3929 11.3885C5.53314 11.1343 5.60743 10.8489 5.60902 10.5586C5.6106 10.2683 5.53941 9.98223 5.40195 9.7265L5.38077 9.69116C5.37069 9.67503 5.36163 9.65781 5.35356 9.64167C5.20445 9.39624 4.99482 9.19324 4.74478 9.05197C4.49475 8.91071 4.21266 8.83599 3.92548 8.83493C3.4745 8.83866 3.04346 9.02114 2.72694 9.34239C2.41041 9.66365 2.23425 10.0974 2.2372 10.5484H2.23825ZM14.6864 5.9092C15.0266 5.91481 15.3609 5.819 15.6465 5.63405C15.9322 5.4491 16.1563 5.18339 16.2904 4.87064C16.4245 4.5579 16.4625 4.21229 16.3996 3.87788C16.3367 3.54346 16.1756 3.23532 15.937 2.99271C15.6984 2.7501 15.393 2.58401 15.0597 2.51553C14.7263 2.44706 14.3802 2.47934 14.0652 2.60824C13.7503 2.73713 13.4809 2.95678 13.2912 3.2393C13.1015 3.52183 13.0002 3.85435 13.0002 4.19464C12.9991 4.47908 13.0684 4.75945 13.2019 5.01062L13.2281 5.05198C13.2389 5.07014 13.249 5.08856 13.2584 5.10738C13.4082 5.35154 13.618 5.55332 13.8677 5.69364C14.1175 5.83396 14.3999 5.90822 14.6864 5.9092Z" fill="#AFB0C0"/>
</svg>