<svg width="40" height="40" viewBox="0 0 40 40" fill="none" xmlns="http://www.w3.org/2000/svg">
<g id="Group 277">
<path id="Vector" fill-rule="evenodd" clip-rule="evenodd" d="M20.5 6C12.4916 6 6 12.4931 6 20.5C6 28.5084 12.4916 35 20.5 35C28.5069 35 35 28.5084 35 20.5C35 12.4931 28.5069 6 20.5 6ZM20.5 32.1C14.0939 32.1 8.9 26.9061 8.9 20.5C8.9 14.0939 14.0939 8.9 20.5 8.9C26.9061 8.9 32.1 14.0939 32.1 20.5C32.1 26.9061 26.9061 32.1 20.5 32.1ZM20.5 24.85C18.6077 24.85 17.0157 23.6349 16.4168 21.95H13.3965C14.0693 25.2589 16.9924 27.75 20.5 27.75C24.0075 27.75 26.9322 25.2589 27.6036 21.95H24.5832C23.9844 23.6349 22.3923 24.85 20.5 24.85ZM16.15 16.15H13.25V19.05H16.15V16.15ZM24.85 19.05H27.75V16.15H24.85V19.05Z" fill="#CFD0D9"/>
</g>
</svg>
