<svg xmlns="http://www.w3.org/2000/svg" width="22" height="19" viewBox="0 0 22 19" fill="none">
  <path d="M4.99716 18.9403C3.92726 18.9403 2.90117 18.5153 2.14463 17.7588C1.38809 17.0022 0.963074 15.9762 0.963074 14.9062V4.82102C0.963074 3.75111 1.38809 2.72502 2.14463 1.96848C2.90117 1.21194 3.92726 0.786926 4.99716 0.786926H17.0994C18.1693 0.786926 19.1954 1.21194 19.952 1.96848C20.7085 2.72502 21.1335 3.75111 21.1335 4.82102V14.9062C21.1335 15.9762 20.7085 17.0022 19.952 17.7588C19.1954 18.5153 18.1693 18.9403 17.0994 18.9403H4.99716ZM2.98012 14.9062C2.98012 15.4412 3.19263 15.9542 3.5709 16.3325C3.94917 16.7108 4.46221 16.9233 4.99716 16.9233H17.0994C17.6344 16.9233 18.1474 16.7108 18.5257 16.3325C18.904 15.9542 19.1165 15.4412 19.1165 14.9062V10.8722H2.98012V14.9062ZM2.98012 4.82102V8.85511H19.1165V4.82102C19.1165 4.28606 18.904 3.77302 18.5257 3.39475C18.1474 3.01648 17.6344 2.80397 17.0994 2.80397H4.99716C4.46221 2.80397 3.94917 3.01648 3.5709 3.39475C3.19263 3.77302 2.98012 4.28606 2.98012 4.82102ZM14.0739 14.9062V12.8892H16.0909V14.9062H14.0739ZM10.0398 14.9062V12.8892H12.0568V14.9062H10.0398ZM6.00569 14.9062V12.8892H8.02273V14.9062H6.00569ZM6.00569 6.83806V4.82102H16.0909V6.83806H6.00569Z" fill="#3E3F5E"/>
</svg>