<svg width="41" height="41" viewBox="0 0 41 41" fill="none" xmlns="http://www.w3.org/2000/svg">
<path d="M34.5938 0H6.40625C2.86818 0 0 2.86818 0 6.40625V34.5938C0 38.1318 2.86818 41 6.40625 41H34.5938C38.1318 41 41 38.1318 41 34.5938V6.40625C41 2.86818 38.1318 0 34.5938 0Z" fill="#1DA1F2"/>
<path d="M30.75 14.0938C29.9813 14.4781 29.2125 14.6063 28.3156 14.7344C29.2125 14.2219 29.8531 13.4531 30.1094 12.4281C29.3406 12.9406 28.4438 13.1969 27.4187 13.4531C26.65 12.6844 25.4969 12.1719 24.3438 12.1719C21.6531 12.1719 19.6031 14.7344 20.2438 17.2969C16.7844 17.1687 13.7094 15.5031 11.5312 12.9406C10.3781 14.8625 11.0188 17.2969 12.8125 18.5781C12.1719 18.5781 11.5312 18.3219 10.8906 18.0656C10.8906 19.9875 12.3 21.7812 14.2219 22.2937C13.5813 22.4219 12.9406 22.55 12.3 22.4219C12.8125 24.0875 14.35 25.3687 16.2719 25.3687C14.7344 26.5219 12.4281 27.1625 10.25 26.9062C12.1719 28.0594 14.35 28.8281 16.6562 28.8281C24.4719 28.8281 28.8281 22.2937 28.5719 16.2719C29.4687 15.7594 30.2375 14.9906 30.75 14.0938Z" fill="white"/>
</svg>
