<svg xmlns="http://www.w3.org/2000/svg" width="88" height="89" viewBox="0 0 88 89" fill="none">
  <path d="M44 88.312C68.3005 88.312 88 68.5549 88 44.1833C88 19.8118 68.3005 0.0546875 44 0.0546875C19.6995 0.0546875 0 19.8118 0 44.1833C0 68.5549 19.6995 88.312 44 88.312Z" fill="url(#paint0_linear_1_1643)"/>
  <path d="M56.1846 37.7053C56.0144 35.516 55.5747 33.757 54.3691 32.4084C53.2775 31.1873 51.8846 30.6526 50.2423 30.4056C48.6876 30.1718 46.7204 30.1718 44.3235 30.1719L44.2048 30.1719H39.4945L39.3758 30.1719C36.9789 30.1718 35.0117 30.1718 33.457 30.4056C31.8147 30.6526 30.4218 31.1873 29.3302 32.4084C28.2603 33.6053 27.8118 35.0919 27.6012 36.844C27.3964 38.5479 27.3965 40.7179 27.3965 43.4279L27.3965 43.5273V44.8446L27.3965 44.9441C27.3965 47.654 27.3964 49.8241 27.6012 51.5279C27.8118 53.2801 28.2603 54.7666 29.3302 55.9636C30.4218 57.1846 31.8147 57.7194 33.457 57.9664C35.0117 58.2002 36.9789 58.2001 39.3758 58.2001L39.4945 58.2001H44.2048L44.3235 58.2001C46.7204 58.2001 48.6876 58.2002 50.2423 57.9664C51.8846 57.7194 53.2775 57.1846 54.3691 55.9636C55.5747 54.6149 56.0144 52.856 56.1846 50.6667L60.4656 53.4316C60.4874 53.4456 60.5094 53.4599 60.5317 53.4743C60.8636 53.689 61.2482 53.9377 61.5931 54.0902C61.9776 54.2601 62.7712 54.5147 63.5652 54.002L62.7514 52.7419L63.5652 54.002C64.2929 53.5319 64.4456 52.7715 64.4959 52.3926C64.5461 52.0144 64.5459 51.5459 64.5458 51.1056C64.5457 51.0805 64.5457 51.0556 64.5457 51.0307V37.3412C64.5457 37.3164 64.5457 37.2914 64.5458 37.2664C64.5459 36.826 64.5461 36.3575 64.4959 35.9793C64.4456 35.6004 64.2929 34.84 63.5652 34.37L62.7514 35.63L63.5652 34.37C62.7712 33.8572 61.9776 34.1119 61.5931 34.2818C61.2482 34.4342 60.8636 34.683 60.5317 34.8976C60.5094 34.912 60.4874 34.9263 60.4656 34.9404L56.1846 37.7053Z" stroke="white" stroke-width="3"/>
  <defs>
    <linearGradient id="paint0_linear_1_1643" x1="88" y1="0.0546875" x2="-0.256922" y2="88.0543" gradientUnits="userSpaceOnUse">
      <stop offset="0.0970643" stop-color="#23D2E2"/>
      <stop offset="1" stop-color="#615DFA"/>
    </linearGradient>
  </defs>
</svg>